<svg xmlns="http://www.w3.org/2000/svg" width="148" height="44" viewBox="64 12 148 44" fill="none" role="img" aria-label="SmartContact, a Digital Virgo tool">
<path d="M66.9598 26.1555C66.1499 25.8107 65.5159 25.3077 65.0477 24.6474C64.5795 23.9968 64.3355 23.218 64.3257 22.3309H67.428C67.4671 22.9321 67.6818 23.4051 68.0621 23.7504C68.4423 24.0951 68.9598 24.2726 69.6228 24.2726C70.2858 24.2726 70.8325 24.1049 71.2132 23.7799C71.6032 23.4545 71.7887 23.0209 71.7887 22.4986C71.7887 22.0648 71.6618 21.7101 71.3986 21.4343C71.1351 21.1582 70.8132 20.9317 70.4134 20.7739C70.023 20.6161 69.4767 20.4386 68.7939 20.2417C67.8571 19.9657 67.0965 19.6898 66.5112 19.4137C65.9259 19.1376 65.4186 18.7337 64.9989 18.1818C64.5792 17.6299 64.3648 16.9005 64.3648 15.9739C64.3648 15.1064 64.5795 14.3573 65.0087 13.7166C65.4382 13.076 66.0328 12.5833 66.8036 12.2381C67.5745 11.8933 68.4623 11.7257 69.4475 11.7257C70.9402 11.7257 72.1499 12.0902 73.0768 12.8196C74.0037 13.549 74.5208 14.5738 74.6183 15.8847H71.4283C71.399 15.3821 71.194 14.9679 70.7941 14.6429C70.4038 14.3174 69.877 14.1502 69.233 14.1502C68.6673 14.1502 68.2186 14.2981 67.8771 14.5936C67.5354 14.889 67.3697 15.3131 67.3697 15.865C67.3697 16.2591 67.4967 16.5747 67.7501 16.8409C68.0039 17.0973 68.3256 17.3041 68.7064 17.4717C69.0866 17.6295 69.6235 17.8165 70.306 18.0236C71.2428 18.2997 72.0132 18.5853 72.5989 18.8615C73.194 19.1376 73.7011 19.5613 74.1307 20.1132C74.5599 20.6749 74.7746 21.4043 74.7746 22.3112C74.7746 23.0899 74.5695 23.8193 74.1795 24.4895C73.7796 25.1598 73.1943 25.6919 72.4236 26.0863C71.6528 26.4804 70.7356 26.6778 69.6723 26.6778C68.6673 26.6778 67.7598 26.51 66.9598 26.1555Z" fill="white"/>
<path d="M94.9298 16.092C95.7885 16.9595 96.2273 18.1816 96.2273 19.739V26.5301H93.3297V20.1331C93.3297 19.2261 93.1052 18.5362 92.6468 18.0534C92.1884 17.5705 91.5737 17.3339 90.7835 17.3339C89.9933 17.3339 89.3688 17.5705 88.9104 18.0534C88.452 18.5362 88.2177 19.2261 88.2177 20.1331V26.5301H85.3201V20.1331C85.3201 19.2261 85.0956 18.5362 84.6372 18.0534C84.1788 17.5705 83.5641 17.3339 82.7739 17.3339C81.9837 17.3339 81.3398 17.5705 80.8814 18.0534C80.423 18.5362 80.1886 19.2261 80.1886 20.1331V26.5301H77.291V14.9583H80.1886V16.3579C80.5592 15.8751 81.0375 15.4904 81.6228 15.2048C82.2081 14.9287 82.8521 14.791 83.5545 14.791C84.4521 14.791 85.2518 14.9784 85.9543 15.3626C86.6566 15.7468 87.2029 16.2893 87.5934 16.999C87.9639 16.3287 88.5107 15.7966 89.2126 15.3922C89.9248 14.9883 90.6956 14.7812 91.5153 14.7812C92.9299 14.791 94.0712 15.2246 94.9298 16.092Z" fill="white"/>
<path d="M98.9199 17.59C99.3783 16.6831 100.012 15.9833 100.803 15.5004C101.593 15.0176 102.481 14.771 103.466 14.771C104.325 14.771 105.066 14.9485 105.71 15.2933C106.354 15.6381 106.861 16.0819 107.251 16.614V14.958H110.168V26.5392H107.251V24.8441C106.881 25.3862 106.363 25.8394 105.71 26.1944C105.056 26.5495 104.295 26.7266 103.446 26.7266C102.48 26.7266 101.602 26.4801 100.812 25.9774C100.022 25.4749 99.3878 24.7653 98.9294 23.8583C98.471 22.9416 98.2367 21.897 98.2367 20.7143C98.2268 19.5316 98.4611 18.4965 98.9199 17.59ZM106.842 18.9108C106.568 18.3983 106.198 18.0137 105.72 17.7379C105.252 17.4618 104.744 17.334 104.208 17.334C103.671 17.334 103.173 17.4622 102.715 17.7281C102.257 17.9943 101.895 18.3786 101.612 18.891C101.33 19.4034 101.193 20.0046 101.193 20.6946C101.193 21.3845 101.33 22.0054 101.612 22.5277C101.895 23.0499 102.266 23.4544 102.734 23.73C103.192 24.0062 103.69 24.1439 104.217 24.1439C104.744 24.1439 105.261 24.0058 105.729 23.7399C106.197 23.4639 106.568 23.0797 106.851 22.5671C107.124 22.0547 107.261 21.4536 107.261 20.7341C107.251 20.0342 107.114 19.4231 106.842 18.9108Z" fill="white"/>
<path d="M117.358 15.3133C117.963 14.9685 118.646 14.791 119.417 14.791V17.866H118.656C117.748 17.866 117.056 18.083 116.597 18.5165C116.139 18.9501 115.905 19.6992 115.905 20.7738V26.5394H113.007V14.9583H115.905V16.752C116.275 16.1409 116.753 15.6585 117.358 15.3133Z" fill="white"/>
<path d="M124.734 17.3536V22.952C124.734 23.3461 124.831 23.6223 125.017 23.7998C125.202 23.9773 125.514 24.0657 125.963 24.0657H127.31V26.5299H125.485C123.047 26.5299 121.827 25.3276 121.827 22.9323V17.3536H120.461V14.9488H121.827V12.0904H124.744V14.9587H127.31V17.3634H124.734L124.734 17.3536Z" fill="white"/>
<path d="M129.807 15.4021C130.441 14.2688 131.309 13.3816 132.402 12.741C133.495 12.1003 134.714 11.7749 136.051 11.7749C137.621 11.7749 138.997 12.1591 140.167 12.928C141.338 13.6968 142.197 14.7808 142.733 16.1903H140.48C140.079 15.313 139.504 14.6329 138.753 14.1599C138.002 13.6869 137.104 13.4502 136.051 13.4502C134.997 13.4502 134.138 13.6869 133.338 14.1599C132.538 14.6329 131.914 15.3031 131.456 16.1805C130.997 17.0479 130.773 18.0728 130.773 19.2456C130.773 20.4184 130.997 21.414 131.456 22.291C131.914 23.1584 132.538 23.8386 133.338 24.3116C134.138 24.7845 135.046 25.0212 136.051 25.0212C137.055 25.0212 138.002 24.7845 138.753 24.3213C139.504 23.8583 140.079 23.1782 140.48 22.3009H142.733C142.197 23.6906 141.338 24.7746 140.167 25.5336C138.997 26.2926 137.621 26.6768 136.051 26.6768C134.714 26.6768 133.495 26.3612 132.402 25.7304C131.309 25.0997 130.441 24.2124 129.807 23.089C129.173 21.9556 128.851 20.6842 128.851 19.2649C128.851 17.8456 129.173 16.5355 129.807 15.4021Z" fill="white"/>
<path d="M147.592 25.9876C146.733 25.5048 146.051 24.8051 145.562 23.908C145.075 23.0109 144.831 21.9664 144.831 20.7837C144.831 19.601 145.085 18.5758 145.582 17.6791C146.09 16.7821 146.773 16.0921 147.64 15.6093C148.508 15.1264 149.484 14.8897 150.558 14.8897C151.631 14.8897 152.606 15.1264 153.474 15.6093C154.343 16.0921 155.026 16.7722 155.533 17.6693C156.041 18.5564 156.284 19.601 156.284 20.7837C156.284 21.9664 156.021 23.0113 155.503 23.908C154.987 24.8051 154.284 25.5048 153.406 25.9876C152.528 26.4706 151.542 26.7171 150.47 26.7171C149.406 26.727 148.45 26.4803 147.592 25.9876ZM152.372 24.5683C152.967 24.2433 153.445 23.7699 153.806 23.1293C154.167 22.4886 154.353 21.71 154.353 20.7837C154.353 19.8574 154.177 19.0886 153.815 18.4381C153.455 17.7975 152.987 17.3245 152.411 17.0089C151.835 16.6933 151.201 16.5359 150.528 16.5359C149.855 16.5359 149.211 16.6937 148.635 17.0089C148.06 17.3245 147.602 17.7975 147.26 18.4381C146.918 19.0787 146.743 19.8574 146.743 20.7837C146.743 21.71 146.908 22.5084 147.25 23.1495C147.592 23.7901 148.04 24.263 148.606 24.5786C149.172 24.8942 149.797 25.0515 150.47 25.0515C151.143 25.0515 151.786 24.8935 152.372 24.5683Z" fill="white"/>
<path d="M167.649 16.1315C168.508 16.9793 168.927 18.1915 168.927 19.7785V26.5301H167.064V20.0546C167.064 18.9115 166.782 18.0341 166.215 17.4329C165.65 16.8317 164.879 16.526 163.893 16.526C162.908 16.526 162.109 16.8416 161.522 17.4625C160.937 18.0933 160.645 19.0002 160.645 20.2026V26.5399H158.762V15.0767H160.645V16.7031C161.015 16.1217 161.522 15.6684 162.166 15.343C162.81 15.0175 163.513 14.8601 164.284 14.8601C165.669 14.87 166.79 15.2936 167.649 16.1315Z" fill="white"/>
<path d="M174.313 16.6442V23.3957C174.313 23.9576 174.429 24.3516 174.664 24.5784C174.898 24.8052 175.308 24.9232 175.883 24.9232H177.269V26.53H175.571C174.528 26.53 173.738 26.2834 173.211 25.8006C172.684 25.3177 172.42 24.5094 172.42 23.3957V16.6442H170.947V15.0769H172.42V12.1889H174.303V15.0769H177.259V16.6442H174.313Z" fill="white"/>
<path d="M179.542 17.6787C180.011 16.7915 180.654 16.1114 181.474 15.6187C182.294 15.1359 183.21 14.8893 184.215 14.8893C185.22 14.8893 186.069 15.1063 186.801 15.5398C187.532 15.9733 188.078 16.5158 188.44 17.1663V15.0767H190.342V26.5297H188.44V24.4006C188.068 25.0708 187.512 25.6228 186.771 26.0665C186.029 26.51 185.17 26.7269 184.195 26.7269C183.219 26.7269 182.274 26.4804 181.464 25.9778C180.654 25.4753 180.011 24.7754 179.542 23.8685C179.073 22.9616 178.838 21.9269 178.838 20.7738C178.838 19.6207 179.073 18.5655 179.542 17.6787ZM187.922 18.5264C187.581 17.8858 187.113 17.3931 186.527 17.0479C185.942 16.7031 185.297 16.5355 184.596 16.5355C183.893 16.5355 183.249 16.7031 182.673 17.0381C182.098 17.3734 181.63 17.8562 181.288 18.4968C180.946 19.1375 180.771 19.8866 180.771 20.7537C180.771 21.6208 180.946 22.3899 181.288 23.0405C181.63 23.691 182.097 24.1837 182.673 24.5289C183.249 24.8737 183.893 25.0413 184.596 25.0413C185.297 25.0413 185.942 24.8737 186.527 24.5289C187.113 24.1841 187.581 23.691 187.922 23.0405C188.264 22.3899 188.44 21.6408 188.44 20.7738C188.44 19.9067 188.274 19.1671 187.922 18.5264Z" fill="white"/>
<path d="M193.532 17.6787C194 16.7915 194.653 16.1114 195.482 15.6187C196.322 15.1359 197.268 14.8893 198.351 14.8893C199.746 14.8893 200.897 15.2341 201.795 15.9142C202.702 16.5943 203.297 17.5406 203.58 18.7529H201.55C201.355 18.0531 200.985 17.5012 200.419 17.0972C199.864 16.6933 199.171 16.4862 198.342 16.4862C197.268 16.4862 196.401 16.8605 195.736 17.5998C195.074 18.3489 194.741 19.4033 194.741 20.7636C194.741 22.1238 195.072 23.2078 195.736 23.9569C196.401 24.706 197.269 25.0902 198.342 25.0902C199.171 25.0902 199.864 24.8929 200.41 24.5087C200.965 24.1147 201.338 23.5628 201.55 22.8335H203.58C203.278 24.0062 202.672 24.9427 201.756 25.6425C200.848 26.3424 199.707 26.6969 198.342 26.6969C197.268 26.6969 196.313 26.4504 195.473 25.9676C194.635 25.4848 193.99 24.7948 193.522 23.8976C193.054 23.0105 192.82 21.9561 192.82 20.7636C192.829 19.6006 193.064 18.5655 193.532 17.6787Z" fill="white"/>
<path d="M208.39 16.6442V23.3957C208.39 23.9576 208.506 24.3516 208.741 24.5784C208.974 24.8052 209.385 24.9232 209.96 24.9232H211.346V26.53H209.648C208.605 26.53 207.814 26.2834 207.288 25.8006C206.762 25.3177 206.497 24.5094 206.497 23.3957V16.6442H205.024V15.0769H206.497V12.1889H208.38V15.0769H211.346V16.6442H208.39Z" fill="white"/>
<path d="M105.349 35.7512C105.7 35.2389 106.149 34.8542 106.676 34.5785C107.203 34.3023 107.768 34.1647 108.383 34.1647C109.066 34.1647 109.612 34.3324 110.031 34.677C110.451 35.0121 110.714 35.4459 110.822 35.9781L111.124 34.2533H111.66L110.5 40.8373H109.973L110.275 39.1028C109.992 39.6349 109.583 40.0787 109.036 40.4235C108.49 40.7683 107.876 40.936 107.183 40.936C106.393 40.936 105.758 40.6992 105.281 40.2262C104.803 39.7533 104.569 39.1127 104.569 38.3043C104.569 38.0578 104.588 37.8116 104.637 37.5355C104.754 36.8554 104.997 36.2636 105.349 35.7512ZM110.607 36.8945C110.607 36.2045 110.402 35.6624 109.993 35.2482C109.583 34.8444 109.046 34.6373 108.373 34.6373C107.846 34.6373 107.359 34.7555 106.91 34.9821C106.461 35.2089 106.09 35.5438 105.798 35.9876C105.495 36.4212 105.3 36.9434 105.193 37.5449C105.154 37.8109 105.134 38.0376 105.134 38.225C105.134 38.9248 105.33 39.4767 105.729 39.8709C106.129 40.2654 106.666 40.4621 107.359 40.4621C107.866 40.4621 108.344 40.3439 108.793 40.1075C109.241 39.8709 109.622 39.526 109.935 39.092C110.247 38.6487 110.452 38.1363 110.549 37.5544C110.578 37.2885 110.607 37.072 110.607 36.8945Z" fill="white"/>
<path d="M122.666 33.169C123.309 33.7307 123.641 34.539 123.641 35.5738C123.641 35.8693 123.612 36.2046 123.544 36.5888C123.309 37.9292 122.744 38.9738 121.846 39.7131C120.949 40.4524 119.778 40.8267 118.344 40.8267H115.993L117.496 32.311H119.846C121.076 32.3208 122.022 32.5973 122.666 33.169ZM121.524 39.3885C122.305 38.7182 122.802 37.7817 123.007 36.5892C123.066 36.2838 123.095 35.9682 123.095 35.6527C123.095 34.7363 122.812 34.0364 122.256 33.5335C121.7 33.0309 120.871 32.7844 119.768 32.7844H117.954L116.617 40.403H118.442C119.719 40.3931 120.744 40.0586 121.524 39.3885Z" fill="white"/>
<path d="M126.148 34.2432L124.988 40.827H124.451L125.612 34.2432H126.148ZM125.846 32.6763C125.778 32.6072 125.738 32.5184 125.738 32.4001C125.738 32.2422 125.797 32.1046 125.904 31.9961C126.012 31.8877 126.148 31.8284 126.285 31.8284C126.392 31.8284 126.49 31.8679 126.568 31.9369C126.646 32.0061 126.685 32.1046 126.685 32.2131C126.685 32.3709 126.626 32.509 126.509 32.617C126.392 32.7256 126.265 32.7749 126.119 32.7749C126.011 32.7749 125.924 32.7452 125.846 32.6763Z" fill="white"/>
<path d="M132.607 34.667C133.027 35.002 133.289 35.4359 133.387 35.9582L133.69 34.243H134.226L133.037 41.0341C132.93 41.6451 132.695 42.1674 132.354 42.6308C132.013 43.0841 131.593 43.4392 131.105 43.6854C130.617 43.9318 130.091 44.0597 129.534 44.0597C128.715 44.0597 128.071 43.8624 127.603 43.4683C127.134 43.0743 126.881 42.5417 126.842 41.8715H127.378C127.446 42.3938 127.67 42.8179 128.051 43.1231C128.431 43.4388 128.959 43.5867 129.612 43.5867C130.071 43.5867 130.5 43.4881 130.9 43.2809C131.3 43.0739 131.642 42.7785 131.925 42.3938C132.208 42.0096 132.393 41.5559 132.481 41.0435L132.813 39.1117C132.53 39.634 132.12 40.0676 131.573 40.4126C131.027 40.7575 130.412 40.9252 129.739 40.9252C128.939 40.9252 128.305 40.6884 127.827 40.2155C127.349 39.7425 127.115 39.1018 127.115 38.2936C127.115 38.047 127.134 37.8009 127.183 37.5247C127.3 36.8446 127.544 36.2533 127.895 35.7408C128.247 35.2284 128.695 34.8438 129.222 34.5681C129.749 34.292 130.315 34.1543 130.929 34.1543C131.631 34.1641 132.189 34.3321 132.607 34.667ZM133.172 36.8944C133.172 36.2044 132.968 35.6623 132.558 35.2481C132.149 34.8442 131.611 34.637 130.938 34.637C130.412 34.637 129.924 34.7554 129.475 34.9819C129.026 35.2087 128.655 35.5437 128.363 35.9873C128.061 36.4209 127.865 36.9432 127.758 37.5448C127.719 37.8107 127.699 38.0375 127.699 38.2249C127.699 38.9247 127.895 39.4766 128.294 39.8707C128.694 40.2652 129.231 40.462 129.924 40.462C130.431 40.462 130.909 40.3437 131.358 40.1073C131.807 39.8707 132.188 39.5259 132.499 39.0919C132.812 38.6485 133.017 38.1362 133.114 37.5543C133.153 37.2884 133.172 37.0718 133.172 36.8944Z" fill="white"/>
<path d="M136.753 34.2432L135.592 40.827H135.056L136.216 34.2432H136.753ZM136.45 32.6763C136.382 32.6072 136.343 32.5184 136.343 32.4001C136.343 32.2422 136.402 32.1046 136.509 31.9961C136.617 31.8877 136.753 31.8284 136.889 31.8284C136.996 31.8284 137.094 31.8679 137.172 31.9369C137.25 32.0061 137.29 32.1046 137.29 32.2131C137.29 32.3709 137.231 32.509 137.114 32.617C136.996 32.7256 136.87 32.7749 136.724 32.7749C136.617 32.7749 136.519 32.7452 136.45 32.6763Z" fill="white"/>
<path d="M138.684 39.0727C138.655 39.2304 138.636 39.3977 138.636 39.5555C138.636 39.8513 138.714 40.0483 138.88 40.1666C139.036 40.2848 139.299 40.3441 139.67 40.3441H140.392L140.304 40.8269H139.484C139.007 40.8269 138.645 40.7381 138.421 40.5507C138.197 40.3633 138.08 40.058 138.08 39.6241C138.08 39.4368 138.099 39.2498 138.129 39.0624L138.899 34.7061H137.914L138.002 34.2332H138.987L139.279 32.5573H139.836L139.543 34.2332H141.465L141.378 34.7061H139.455L138.684 39.0727Z" fill="white"/>
<path d="M142.685 35.7512C143.036 35.2389 143.485 34.8542 144.011 34.5785C144.539 34.3023 145.104 34.1647 145.719 34.1647C146.401 34.1647 146.947 34.3324 147.367 34.677C147.786 35.0121 148.05 35.4459 148.158 35.9781L148.459 34.2533H148.997L147.835 40.8373H147.309L147.612 39.1028C147.328 39.6349 146.918 40.0787 146.372 40.4235C145.826 40.7683 145.212 40.936 144.519 40.936C143.729 40.936 143.094 40.6992 142.616 40.2262C142.138 39.7533 141.904 39.1127 141.904 38.3043C141.904 38.0578 141.924 37.8116 141.972 37.5355C142.09 36.8554 142.333 36.2636 142.685 35.7512ZM147.933 36.8945C147.933 36.2045 147.728 35.6624 147.319 35.2482C146.908 34.8444 146.372 34.6373 145.699 34.6373C145.172 34.6373 144.684 34.7555 144.236 34.9821C143.787 35.2089 143.416 35.5438 143.123 35.9876C142.821 36.4212 142.626 36.9434 142.518 37.5449C142.479 37.8109 142.46 38.0376 142.46 38.225C142.46 38.9248 142.655 39.4767 143.055 39.8709C143.455 40.2654 143.992 40.4621 144.684 40.4621C145.192 40.4621 145.67 40.3439 146.119 40.1075C146.567 39.8709 146.947 39.526 147.26 39.092C147.573 38.6487 147.777 38.1363 147.874 37.5544C147.913 37.2885 147.933 37.072 147.933 36.8945Z" fill="white"/>
<path d="M151.923 31.8579L150.353 40.8368H149.816L151.387 31.8579H151.923Z" fill="white"/>
<path d="M157.289 32.3212L158.811 40.1469L163.094 32.3212H163.698L158.995 40.8369H158.393L156.676 32.3212H157.289Z" fill="white"/>
<path d="M165.221 34.2432L164.059 40.827H163.523L164.683 34.2432H165.221ZM164.928 32.6763C164.859 32.6072 164.82 32.5184 164.82 32.4001C164.82 32.2422 164.879 32.1046 164.986 31.9961C165.094 31.8877 165.23 31.8284 165.366 31.8284C165.475 31.8284 165.571 31.8679 165.651 31.9369C165.728 32.0061 165.767 32.1046 165.767 32.2131C165.767 32.3709 165.708 32.509 165.591 32.617C165.475 32.7256 165.347 32.7749 165.201 32.7749C165.084 32.7749 164.996 32.7452 164.928 32.6763Z" fill="white"/>
<path d="M168.557 34.5093C169.006 34.2431 169.552 34.1055 170.176 34.1055L170.07 34.677H169.904C169.26 34.677 168.703 34.8644 168.206 35.2289C167.718 35.5935 167.406 36.1949 167.258 37.0326L166.586 40.827H166.05L167.209 34.2431H167.747L167.493 35.6625C167.747 35.1599 168.097 34.7851 168.557 34.5093Z" fill="white"/>
<path d="M175.884 34.667C176.303 35.002 176.566 35.4359 176.664 35.9582L176.966 34.243H177.503L176.312 41.0341C176.206 41.6451 175.972 42.1674 175.63 42.6308C175.288 43.0841 174.869 43.4392 174.381 43.6854C173.894 43.9318 173.366 44.0597 172.811 44.0597C171.991 44.0597 171.347 43.8624 170.879 43.4683C170.411 43.0743 170.157 42.5417 170.117 41.8715H170.654C170.723 42.3938 170.947 42.8179 171.328 43.1231C171.708 43.4388 172.235 43.5867 172.889 43.5867C173.347 43.5867 173.776 43.4881 174.176 43.2809C174.577 43.0739 174.919 42.7785 175.201 42.3938C175.483 42.0096 175.669 41.5559 175.757 41.0435L176.088 39.1117C175.805 39.634 175.395 40.0676 174.849 40.4126C174.303 40.7575 173.689 40.9252 173.016 40.9252C172.216 40.9252 171.582 40.6884 171.104 40.2155C170.624 39.7425 170.391 39.1018 170.391 38.2936C170.391 38.047 170.411 37.8009 170.459 37.5247C170.577 36.8446 170.82 36.2533 171.171 35.7408C171.523 35.2284 171.971 34.8438 172.498 34.5681C173.025 34.292 173.59 34.1543 174.204 34.1543C174.909 34.1641 175.464 34.3321 175.884 34.667ZM176.449 36.8944C176.449 36.2044 176.244 35.6623 175.835 35.2481C175.425 34.8442 174.889 34.637 174.214 34.637C173.689 34.637 173.201 34.7554 172.751 34.9819C172.303 35.2087 171.932 35.5437 171.639 35.9873C171.338 36.4209 171.142 36.9432 171.035 37.5448C170.996 37.8107 170.976 38.0375 170.976 38.2249C170.976 38.9247 171.171 39.4766 171.572 39.8707C171.971 40.2652 172.508 40.462 173.201 40.462C173.708 40.462 174.186 40.3437 174.634 40.1073C175.083 39.8707 175.464 39.5259 175.776 39.0919C176.09 38.6485 176.294 38.1362 176.392 37.5543C176.432 37.2884 176.45 37.0714 176.45 36.894L176.449 36.8944Z" fill="white"/>
<path d="M179.239 40.2159C178.752 39.7429 178.499 39.0924 178.499 38.2742C178.499 37.535 178.664 36.8451 178.996 36.2143C179.328 35.5834 179.786 35.081 180.381 34.716C180.976 34.3515 181.63 34.1642 182.361 34.1642C182.888 34.1642 183.356 34.2726 183.767 34.4895C184.177 34.7065 184.487 35.0118 184.722 35.4163C184.948 35.8201 185.064 36.2837 185.064 36.8257C185.064 37.565 184.898 38.255 184.557 38.8857C184.226 39.5164 183.757 40.019 183.172 40.384C182.586 40.7484 181.922 40.9358 181.2 40.9358C180.381 40.926 179.727 40.6889 179.239 40.2159ZM182.947 39.9598C183.434 39.6245 183.824 39.1911 184.098 38.6391C184.371 38.0872 184.507 37.496 184.507 36.8455C184.507 36.1259 184.293 35.5739 183.873 35.1996C183.454 34.8154 182.918 34.628 182.274 34.628C181.63 34.628 181.083 34.7957 180.596 35.1207C180.107 35.456 179.727 35.8995 179.454 36.4513C179.181 37.0031 179.044 37.6044 179.044 38.2451C179.044 38.9646 179.259 39.5164 179.679 39.8912C180.098 40.2755 180.625 40.4628 181.269 40.4628C181.903 40.4529 182.459 40.2947 182.947 39.9598Z" fill="white"/>
<path d="M190.703 39.0727C190.673 39.2304 190.653 39.3981 190.653 39.5555C190.653 39.8509 190.732 40.0483 190.898 40.1666C191.054 40.2848 191.317 40.3441 191.688 40.3441H192.409L192.322 40.8269H191.502C191.024 40.8269 190.663 40.7381 190.438 40.5507C190.215 40.3633 190.097 40.058 190.097 39.6241C190.097 39.4368 190.117 39.2498 190.146 39.0624L190.918 34.7061H189.931L190.019 34.2332H191.005L191.297 32.5573H191.854L191.562 34.2332H193.483L193.394 34.7061H191.473L190.703 39.0727Z" fill="white"/>
<path d="M194.663 40.2159C194.176 39.7429 193.923 39.0924 193.923 38.2742C193.923 37.535 194.089 36.8451 194.419 36.2143C194.751 35.5834 195.21 35.081 195.805 34.716C196.401 34.3515 197.053 34.1642 197.785 34.1642C198.312 34.1642 198.781 34.2726 199.191 34.4895C199.601 34.7065 199.912 35.0118 200.147 35.4163C200.37 35.8201 200.489 36.2837 200.489 36.8257C200.489 37.565 200.322 38.255 199.981 38.8857C199.65 39.5164 199.182 40.019 198.596 40.384C198.011 40.7484 197.346 40.9358 196.625 40.9358C195.815 40.926 195.162 40.6893 194.664 40.2164L194.663 40.2159ZM198.37 39.9598C198.857 39.6245 199.248 39.1911 199.522 38.6391C199.795 38.0872 199.931 37.496 199.931 36.8455C199.931 36.1259 199.716 35.5739 199.297 35.1996C198.877 34.8154 198.342 34.628 197.698 34.628C197.053 34.628 196.507 34.7957 196.02 35.1207C195.532 35.456 195.151 35.8995 194.878 36.4513C194.604 37.0031 194.468 37.6044 194.468 38.2451C194.468 38.9646 194.683 39.5164 195.102 39.8912C195.522 40.2755 196.049 40.4628 196.693 40.4628C197.327 40.4529 197.884 40.2947 198.37 39.9598Z" fill="white"/>
<path d="M202.409 40.2159C201.922 39.7429 201.669 39.0924 201.669 38.2742C201.669 37.535 201.833 36.8451 202.165 36.2143C202.498 35.5834 202.956 35.081 203.551 34.716C204.145 34.3515 204.8 34.1642 205.531 34.1642C206.058 34.1642 206.527 34.2726 206.937 34.4895C207.346 34.7065 207.658 35.0118 207.893 35.4163C208.116 35.8201 208.235 36.2837 208.235 36.8257C208.235 37.565 208.069 38.255 207.727 38.8857C207.396 39.5164 206.927 40.019 206.342 40.384C205.757 40.7484 205.093 40.9358 204.371 40.9358C203.551 40.926 202.898 40.6893 202.41 40.2164L202.409 40.2159ZM206.117 39.9598C206.605 39.6245 206.994 39.1911 207.268 38.6391C207.541 38.0872 207.677 37.496 207.677 36.8455C207.677 36.1259 207.462 35.5739 207.043 35.1996C206.623 34.8154 206.088 34.628 205.444 34.628C204.8 34.628 204.253 34.7957 203.766 35.1207C203.276 35.456 202.897 35.8995 202.624 36.4513C202.35 37.0031 202.214 37.6044 202.214 38.2451C202.214 38.9646 202.429 39.5164 202.848 39.8912C203.268 40.2755 203.795 40.4628 204.439 40.4628C205.063 40.4529 205.628 40.2947 206.117 39.9598Z" fill="white"/>
<path d="M211.346 31.8579L209.774 40.8368H209.239L210.809 31.8579H211.346Z" fill="white"/>
</svg>
