<svg xmlns="http://www.w3.org/2000/svg" width="30.51" height="15.04" viewBox="0 0 30.51 15.04">
  <g id="Grupo_7296" data-name="Grupo 7296" transform="translate(-989.482 -2661)">
    <g id="Grupo_7255" data-name="Grupo 7255" transform="translate(1004.992 2661)">
      <g id="Grupo_4479" data-name="Grupo 4479" transform="translate(0 0)">
        <g id="Grupo_5" data-name="Grupo 5">
          <path id="Trazado_5" data-name="Trazado 5" d="M15.675,461.792c-.158,0-.317-.013-.475-.027a6.607,6.607,0,0,1-1.517-.357,13.642,13.642,0,0,1-5.407-3.517,13.1,13.1,0,0,1-3.719-6.479h0a4.241,4.241,0,0,1,1.7-4.218,1.9,1.9,0,0,1,1.292-.436,1.411,1.411,0,0,1,.989.608,12.256,12.256,0,0,1,1.292,2.38,1.355,1.355,0,0,1-.633,1.838c-.013,0-.013.013-.026.013-.9.6-1.161.767-1.24.833a15.965,15.965,0,0,0,2.519,3.358,15.436,15.436,0,0,0,3.31,2.591,6.993,6.993,0,0,1,.607-1.071c.488-.674.989-.992,1.517-.939a2.072,2.072,0,0,1,.5.145,10.863,10.863,0,0,1,2.044,1.058,2,2,0,0,1,1.029,1.23,1.848,1.848,0,0,1-.448,1.362A4.048,4.048,0,0,1,15.675,461.792ZM13.71,458.5Zm.171-.053a.013.013,0,0,1,.013.013Z" transform="translate(-4.476 -446.752)" fill="#2bae22"/>
        </g>
      </g>
    </g>
    <g id="Grupo_7254" data-name="Grupo 7254" transform="translate(989.482 2661)">
      <g id="Grupo_5411" data-name="Grupo 5411" transform="translate(0 0)">
        <g id="Grupo_1858" data-name="Grupo 1858" transform="translate(0 0)">
          <path id="Trazado_2010" data-name="Trazado 2010" d="M16.938,5.122,15.816,4,6.592,13.224V7.979H5v7.959h7.958V14.346H7.714Z" transform="translate(16.937 15.938) rotate(180)" fill="#2bae22"/>
          <rect id="Rectángulo_944" data-name="Rectángulo 944" width="11.656" height="1.504" transform="translate(0 13.536)" fill="#2bae22"/>
        </g>
      </g>
    </g>
  </g>
</svg>
