<svg xmlns="http://www.w3.org/2000/svg" width="36.034" height="36.035" viewBox="0 0 36.034 36.035">
  <g id="LLAMADA_ENTRANTE" data-name="LLAMADA ENTRANTE" transform="translate(-684.924 -310)">
    <path id="Trazado_9275" data-name="Trazado 9275" d="M594.994,0l12,.035a12,12,0,0,1,11.964,12.034l-.034,12A12,12,0,0,1,606.89,36.035l-12-.035a12,12,0,0,1-11.966-12.034l.034-12A12,12,0,0,1,594.994,0" transform="translate(102 310)" fill="#0f56fb"/>
    <path id="Trazado_9276" data-name="Trazado 9276" d="M594.992.5l12,.035a11.5,11.5,0,0,1,11.466,11.533l-.034,12A11.5,11.5,0,0,1,606.89,35.535l-12-.035a11.5,11.5,0,0,1-11.466-11.533l.035-12A11.5,11.5,0,0,1,594.992.5Z" transform="translate(102 310)" fill="none" stroke="#073cac" stroke-width="1"/>
    <path id="Trazado_9277" data-name="Trazado 9277" d="M605.1,27.366c-.226,0-.455-.012-.684-.031a8.069,8.069,0,0,1-1.855-.434,16.025,16.025,0,0,1-6.327-4.1,15.24,15.24,0,0,1-4.343-7.561,5.316,5.316,0,0,1,2.125-5.29,2.652,2.652,0,0,1,1.773-.587,2.112,2.112,0,0,1,1.511.9,14.347,14.347,0,0,1,1.516,2.785,2.011,2.011,0,0,1-.88,2.662.526.526,0,0,1-.075.047l-.446.294-.556.368a17.646,17.646,0,0,0,2.555,3.311,17.088,17.088,0,0,0,3.205,2.581,8.722,8.722,0,0,1,.487-.8,2.48,2.48,0,0,1,2.175-1.276,2.978,2.978,0,0,1,.715.2,12.91,12.91,0,0,1,2.4,1.239,3.222,3.222,0,0,1,1.37,1.665.554.554,0,0,1,.019.1,2.6,2.6,0,0,1-.629,1.906,5.072,5.072,0,0,1-4.053,2.014M595.66,10.339a1.667,1.667,0,0,0-1.042.388,4.334,4.334,0,0,0-1.761,4.3,14.281,14.281,0,0,0,4.075,7.068,15.107,15.107,0,0,0,5.962,3.873,7.071,7.071,0,0,0,1.615.38,3.888,3.888,0,0,0,.5.026,4.093,4.093,0,0,0,3.383-1.646,1.641,1.641,0,0,0,.416-1.156,2.25,2.25,0,0,0-.959-1.077,11.861,11.861,0,0,0-2.221-1.143,1.836,1.836,0,0,0-.465-.137c-.38-.041-.8.255-1.246.866a7.447,7.447,0,0,0-.639,1.128.5.5,0,0,1-.3.266.487.487,0,0,1-.4-.044,18.024,18.024,0,0,1-3.867-3.017,18.545,18.545,0,0,1-2.934-3.9.489.489,0,0,1,.112-.618c.095-.081.266-.195.984-.669l.468-.31a.243.243,0,0,1,.039-.022c.557-.42.851-.706.528-1.47a13.4,13.4,0,0,0-1.418-2.606,1.11,1.11,0,0,0-.781-.481h-.048" transform="translate(102 310)" fill="#fff"/>
    <path id="Trazado_9278" data-name="Trazado 9278" d="M609.933,8.815a.5.5,0,0,0-.707,0l-7.067,7.067.274-2.578a.5.5,0,0,0-.443-.55.492.492,0,0,0-.551.445l-.425,3.985a.5.5,0,0,0,.5.553.471.471,0,0,0,.053,0l3.985-.425a.5.5,0,1,0-.105-.994l-2.579.275,7.068-7.068a.5.5,0,0,0,0-.707" transform="translate(102 310)" fill="#fff"/>
  </g>
</svg>
