<svg width="28" height="28" viewBox="0 0 28 28" fill="none" xmlns="http://www.w3.org/2000/svg">
<path d="M0 14C0 6.26801 6.26801 0 14 0C21.732 0 28 6.26801 28 14C28 21.732 21.732 28 14 28C6.26801 28 0 21.732 0 14Z" fill="#C6C7F8"/>
<path d="M14.5101 19C13.8444 19 13.251 18.8923 12.7298 18.6768C12.2121 18.4613 11.8002 18.1619 11.4942 17.7785C11.1916 17.392 11.0269 16.9436 11 16.4335H12.2709C12.2978 16.7471 12.4121 17.0181 12.6138 17.2462C12.8156 17.4712 13.0795 17.6454 13.4056 17.769C13.7317 17.8926 14.0932 17.9544 14.4899 17.9544C14.9337 17.9544 15.3271 17.8815 15.67 17.7357C16.013 17.59 16.2819 17.3872 16.4769 17.1274C16.6719 16.8676 16.7695 16.5665 16.7695 16.2243C16.7695 15.8663 16.6753 15.551 16.487 15.2785C16.2988 15.0029 16.0231 14.7874 15.6599 14.6321C15.2968 14.4769 14.853 14.3992 14.3285 14.3992H13.5014V13.3536H14.3285C14.7387 13.3536 15.0985 13.2839 15.4078 13.1445C15.7205 13.0051 15.9642 12.8086 16.139 12.5551C16.3172 12.3016 16.4063 12.0038 16.4063 11.6616C16.4063 11.3321 16.329 11.0453 16.1744 10.8013C16.0197 10.5574 15.8012 10.3672 15.5187 10.231C15.2397 10.0947 14.9102 10.0266 14.5303 10.0266C14.1739 10.0266 13.8377 10.0884 13.5216 10.212C13.2089 10.3324 12.9534 10.5082 12.755 10.7395C12.5567 10.9677 12.4491 11.2433 12.4323 11.5665H11.2219C11.2421 11.0564 11.4051 10.6096 11.7111 10.2262C12.0171 9.83967 12.4171 9.53866 12.9114 9.32319C13.409 9.10773 13.9553 9 14.5504 9C15.1892 9 15.7373 9.12199 16.1945 9.36597C16.6518 9.60678 17.0031 9.92522 17.2486 10.3213C17.494 10.7174 17.6167 11.1451 17.6167 11.6046C17.6167 12.1527 17.4637 12.6201 17.1578 13.0067C16.8552 13.3932 16.4433 13.661 15.9222 13.8099V13.8859C16.5744 13.9873 17.0838 14.2487 17.4503 14.6702C17.8168 15.0884 18 15.6065 18 16.2243C18 16.7535 17.847 17.2288 17.5411 17.6502C17.2385 18.0684 16.8249 18.398 16.3004 18.6388C15.7759 18.8796 15.1792 19 14.5101 19Z" fill="#1C1C1C"/>
</svg>
