<svg width="32" height="32" viewBox="0 0 32 32" fill="none" xmlns="http://www.w3.org/2000/svg">
<path d="M0 16C0 7.16344 7.16344 0 16 0C24.8366 0 32 7.16344 32 16C32 24.8366 24.8366 32 16 32C7.16344 32 0 24.8366 0 16Z" fill="#B1E3FF"/>
<path d="M9 19V12H11.5599C12.07 12 12.4906 12.0843 12.822 12.2529C13.1533 12.4193 13.4 12.6437 13.562 12.9263C13.7241 13.2065 13.8051 13.5176 13.8051 13.8594C13.8051 14.1602 13.7491 14.4085 13.6371 14.6045C13.5275 14.8005 13.3821 14.9554 13.2009 15.0693C13.0222 15.1833 12.8279 15.2676 12.6182 15.3223V15.3906C12.8422 15.4043 13.0675 15.4795 13.2939 15.6162C13.5203 15.7529 13.7098 15.9489 13.8624 16.2041C14.0149 16.4593 14.0912 16.7715 14.0912 17.1406C14.0912 17.4915 14.0077 17.8071 13.8409 18.0874C13.6741 18.3677 13.4107 18.5898 13.0508 18.7539C12.6909 18.918 12.2225 19 11.6457 19H9ZM9.88666 18.248H11.6457C12.2249 18.248 12.636 18.141 12.8792 17.9268C13.1247 17.7103 13.2474 17.4482 13.2474 17.1406C13.2474 16.9036 13.1842 16.6849 13.0579 16.4844C12.9316 16.2816 12.7516 16.1198 12.5181 15.999C12.2845 15.876 12.008 15.8145 11.6886 15.8145H9.88666V18.248ZM9.88666 15.0762H11.5313C11.7982 15.0762 12.039 15.026 12.2535 14.9258C12.4704 14.8255 12.642 14.6842 12.7683 14.502C12.897 14.3197 12.9614 14.1055 12.9614 13.8594C12.9614 13.5518 12.8494 13.2909 12.6253 13.0767C12.4013 12.8602 12.0461 12.752 11.5599 12.752H9.88666V15.0762Z" fill="#1C1C1C"/>
<path d="M16.8781 19L14.8759 12H15.7769L17.3071 17.7012H17.3786L18.9374 12H19.9385L21.4973 17.7012H21.5688L23.099 12H24L21.9979 19H21.0826L19.4666 13.4219H19.4094L17.7933 19H16.8781Z" fill="#1C1C1C"/>
</svg>
