<svg width="11" height="14" viewBox="0 0 11 14" fill="none" xmlns="http://www.w3.org/2000/svg">
<path d="M1.375 14C0.996875 14 0.673177 13.8694 0.403906 13.6083C0.134635 13.3472 0 13.0333 0 12.6667V6C0 5.63333 0.134635 5.31944 0.403906 5.05833C0.673177 4.79722 0.996875 4.66667 1.375 4.66667H2.0625V3.33333C2.0625 2.41111 2.39766 1.625 3.06797 0.975C3.73828 0.325 4.54896 0 5.5 0C6.45104 0 7.26172 0.325 7.93203 0.975C8.60234 1.625 8.9375 2.41111 8.9375 3.33333V4.66667H9.625C10.0031 4.66667 10.3268 4.79722 10.5961 5.05833C10.8654 5.31944 11 5.63333 11 6V12.6667C11 13.0333 10.8654 13.3472 10.5961 13.6083C10.3268 13.8694 10.0031 14 9.625 14H1.375ZM1.375 12.6667H9.625V6H1.375V12.6667ZM6.47109 10.275C6.74037 10.0139 6.875 9.7 6.875 9.33333C6.875 8.96667 6.74037 8.65278 6.47109 8.39167C6.20182 8.13056 5.87813 8 5.5 8C5.12187 8 4.79818 8.13056 4.52891 8.39167C4.25964 8.65278 4.125 8.96667 4.125 9.33333C4.125 9.7 4.25964 10.0139 4.52891 10.275C4.79818 10.5361 5.12187 10.6667 5.5 10.6667C5.87813 10.6667 6.20182 10.5361 6.47109 10.275ZM3.4375 4.66667H7.5625V3.33333C7.5625 2.77778 7.36198 2.30556 6.96094 1.91667C6.5599 1.52778 6.07292 1.33333 5.5 1.33333C4.92708 1.33333 4.4401 1.52778 4.03906 1.91667C3.63802 2.30556 3.4375 2.77778 3.4375 3.33333V4.66667Z" fill="#D3D5DA"/>
</svg>
