<svg xmlns="http://www.w3.org/2000/svg" width="15.469" height="24" viewBox="0 0 15.469 24">
  <path id="customer" d="M682.161,540.743a7.705,7.705,0,0,0-3.205-1.939,6.039,6.039,0,0,0-2.274-11.634h0a6.044,6.044,0,0,0-2.286,11.638,7.74,7.74,0,0,0-5.45,7.374v4.752a.235.235,0,0,0,.235.235h15a.235.235,0,0,0,.235-.235v-4.715A7.686,7.686,0,0,0,682.161,540.743Zm-5.479-2.9h0a4.631,4.631,0,1,1,0-9.263,4.631,4.631,0,1,1,0,9.263Zm-6.327,11.916v-3.575a6.322,6.322,0,0,1,6.323-6.307h.017A6.33,6.33,0,0,1,683,546.217v3.54Z" transform="translate(-668.943 -527.169)" fill="#8d939d"/>
</svg>
