<svg xmlns="http://www.w3.org/2000/svg" width="17" height="17" viewBox="0 0 17 17" aria-hidden="true"> <g transform="translate(-162 -185)"> <g transform="translate(-1093.333 -766.069)"> <circle cx="8.5" cy="8.5" r="8.5" transform="translate(1255.333 951.069)" fill="#bfc5d3"></circle> </g> <path d="M85.6-868.8a5.42,5.42,0,0,1-2.171-.441,5.679,5.679,0,0,1-1.786-1.2,5.686,5.686,0,0,1-1.2-1.786A5.422,5.422,0,0,1,80-874.4a5.407,5.407,0,0,1,.441-2.178,5.706,5.706,0,0,1,1.2-1.779,5.69,5.69,0,0,1,1.786-1.2A5.422,5.422,0,0,1,85.6-880a5.407,5.407,0,0,1,2.178.441,5.712,5.712,0,0,1,1.779,1.2,5.707,5.707,0,0,1,1.2,1.779A5.407,5.407,0,0,1,91.2-874.4a5.422,5.422,0,0,1-.441,2.171,5.686,5.686,0,0,1-1.2,1.786,5.7,5.7,0,0,1-1.779,1.2A5.4,5.4,0,0,1,85.6-868.8Zm0-1.148a7.1,7.1,0,0,0,.63-1.05,6.632,6.632,0,0,0,.434-1.163H84.538a6.635,6.635,0,0,0,.434,1.163A7.1,7.1,0,0,0,85.6-869.944Zm-1.457-.224a7.749,7.749,0,0,1-.441-.959,8.222,8.222,0,0,1-.315-1.029H81.737a4.642,4.642,0,0,0,1.015,1.219A4.03,4.03,0,0,0,84.146-870.168Zm2.913,0a4.03,4.03,0,0,0,1.394-.77,4.642,4.642,0,0,0,1.015-1.219H87.815a8.221,8.221,0,0,1-.315,1.029A7.75,7.75,0,0,1,87.059-870.168Zm-5.8-3.109h1.9q-.042-.28-.063-.553t-.021-.567q0-.294.021-.567t.063-.553h-1.9a4.8,4.8,0,0,0-.105.553,4.455,4.455,0,0,0-.035.567,4.451,4.451,0,0,0,.035.567A4.8,4.8,0,0,0,81.261-873.277Zm3.025,0h2.633q.042-.28.063-.553T87-874.4q0-.294-.021-.567t-.063-.553H84.286q-.042.28-.063.553t-.021.567q0,.294.021.567T84.286-873.277Zm3.754,0h1.9a4.788,4.788,0,0,0,.105-.553,4.453,4.453,0,0,0,.035-.567,4.458,4.458,0,0,0-.035-.567,4.782,4.782,0,0,0-.105-.553h-1.9q.042.28.063.553t.021.567q0,.294-.021.567T88.04-873.277Zm-.224-3.362h1.653a4.649,4.649,0,0,0-1.015-1.218,4.03,4.03,0,0,0-1.394-.77,7.781,7.781,0,0,1,.441.959A8.24,8.24,0,0,1,87.815-876.639Zm-3.277,0h2.129a6.621,6.621,0,0,0-.434-1.162,7.1,7.1,0,0,0-.63-1.051,7.106,7.106,0,0,0-.63,1.051A6.623,6.623,0,0,0,84.538-876.639Zm-2.8,0h1.653a8.241,8.241,0,0,1,.315-1.029,7.78,7.78,0,0,1,.441-.959,4.03,4.03,0,0,0-1.394.77A4.649,4.649,0,0,0,81.737-876.639Z" transform="translate(85 1068)" fill="#1f2429"></path> </g> </svg>
