<svg width="24" height="24" viewBox="0 0 24 24" fill="none" xmlns="http://www.w3.org/2000/svg">
<path d="M0 12C0 5.37258 5.37258 0 12 0C18.6274 0 24 5.37258 24 12C24 18.6274 18.6274 24 12 24C5.37258 24 0 18.6274 0 12Z" fill="#1C1C1C" fill-opacity="0.05"/>
<path d="M16.8248 16.3125C16.7919 16.3695 16.7446 16.4169 16.6875 16.4498C16.6305 16.4827 16.5658 16.5 16.5 16.5H7.49998C7.43419 16.4999 7.36957 16.4825 7.31262 16.4496C7.25566 16.4167 7.20838 16.3693 7.17551 16.3123C7.14264 16.2553 7.12535 16.1907 7.12537 16.1249C7.12538 16.0591 7.14271 15.9945 7.17561 15.9375C7.88951 14.7033 8.98967 13.8183 10.2736 13.3987C9.6385 13.0207 9.14508 12.4446 8.8691 11.759C8.59312 11.0733 8.54983 10.3161 8.74589 9.60344C8.94195 8.89083 9.36651 8.26227 9.95437 7.8143C10.5422 7.36633 11.2609 7.12372 12 7.12372C12.7391 7.12372 13.4577 7.36633 14.0456 7.8143C14.6335 8.26227 15.058 8.89083 15.2541 9.60344C15.4501 10.3161 15.4068 11.0733 15.1309 11.759C14.8549 12.4446 14.3615 13.0207 13.7264 13.3987C15.0103 13.8183 16.1105 14.7033 16.8244 15.9375C16.8573 15.9945 16.8747 16.0591 16.8748 16.1249C16.8749 16.1908 16.8577 16.2554 16.8248 16.3125Z" fill="#1C1C1C"/>
</svg>
