<svg width="24" height="24" viewBox="0 0 24 24" fill="none" xmlns="http://www.w3.org/2000/svg">
<path d="M0 12C0 5.37258 5.37258 0 12 0C18.6274 0 24 5.37258 24 12C24 18.6274 18.6274 24 12 24C5.37258 24 0 18.6274 0 12Z" fill="#E5ECF6"/>
<path d="M7.82493 14.4659V8.84091H8.77947V14.4659H7.82493ZM5.4897 12.1307V11.1761H11.1147V12.1307H5.4897ZM12.8842 13.8182H13.9581C13.9893 14.1136 14.0902 14.3636 14.2607 14.5682C14.4339 14.7699 14.6584 14.9233 14.9339 15.0284C15.2095 15.1307 15.5149 15.1818 15.8501 15.1818C16.2138 15.1818 16.5405 15.1207 16.8303 14.9986C17.12 14.8764 17.3501 14.6946 17.5206 14.4531C17.6911 14.2088 17.7763 13.9062 17.7763 13.5455C17.7763 13.2301 17.7024 12.9375 17.5547 12.6676C17.407 12.3949 17.1697 12.1747 16.843 12.0071C16.5163 11.8395 16.0831 11.7557 15.5433 11.7557H14.8445V10.9034L17.0263 8.27841V8.21023H13.3104V7.27273H18.4751V8.03977L16.1399 10.8693V10.9375C16.5149 10.9545 16.8643 11.0312 17.1882 11.1676C17.5149 11.304 17.799 11.4886 18.0405 11.7216C18.2848 11.9545 18.4751 12.2259 18.6115 12.5355C18.7479 12.8452 18.8161 13.1818 18.8161 13.5455C18.8161 14.0426 18.6882 14.4858 18.4325 14.875C18.1797 15.2614 17.8288 15.5653 17.38 15.7869C16.9339 16.0085 16.4183 16.1193 15.8331 16.1193C15.3161 16.1193 14.8402 16.0284 14.4055 15.8466C13.9709 15.6648 13.6172 15.402 13.3445 15.0582C13.0717 14.7145 12.9183 14.3011 12.8842 13.8182Z" fill="#1C1C1C"/>
</svg>
